<?xml version="1.0" encoding="UTF-8"?>
<svg viewBox="0 0 240.3 277.48" xmlns="http://www.w3.org/2000/svg">
  <defs>
    <linearGradient id="linear-gradient" x1="120.15" y1="0" x2="120.15" y2="277.48" gradientUnits="userSpaceOnUse">
      <stop offset="0" stop-color="#ffffc6"/>
      <stop offset="1" stop-color="#237bb4"/>
    </linearGradient>
  </defs>
  <path fill="url(#linear-gradient)" d="M120.15,0L0,69.37v138.74l120.15,69.37L240.3,208.11V69.37L120.15,0ZM184.02,95.63l-56.73-32.76V19.13l94.62,54.63-37.89,21.87ZM64.23,113.8l48.69,28.11v57.8l-48.69-28.11v-57.8ZM125.92,144.19l50.99-29.44v56.85l-50.99,29.44v-56.85ZM121.39,131.79l-50.45-29.13,49.62-28.65,50.45,29.13-49.62,28.65ZM114.28,62.63l-56.34,32.53-38.31-22.12L114.28,18.4v44.23ZM51.23,106.29v65.62l-38.23,20.92v-108.62l38.23,22.07ZM58.01,183.02l54.91,31.7v43.57l-93.65-54.07,38.74-21.2ZM125.92,216.05l58.95-34.03,36.04,22.28-94.99,54.84v-43.08ZM189.91,169.86v-62.62l37.39-21.59v107.32l-37.39-23.11Z"/>
</svg>
