<?xml version="1.0" encoding="UTF-8"?>
<svg id="Layer_2" data-name="Layer 2" xmlns="http://www.w3.org/2000/svg" xmlns:xlink="http://www.w3.org/1999/xlink" viewBox="0 0 1003.08 277.48">
  <defs>
    <style>
      .cls-1 {
        fill: url(#linear-gradient);
      }

      .cls-2 {
        fill: #e6e6e6;
      }
    </style>
    <linearGradient id="linear-gradient" x1="120.15" y1="0" x2="120.15" y2="277.48" gradientUnits="userSpaceOnUse">
      <stop offset="0" stop-color="#ffffc6"/>
      <stop offset="1" stop-color="#237bb4"/>
    </linearGradient>
  </defs>
  <g id="Layer_1-2" data-name="Layer 1">
    <g>
      <g>
        <path class="cls-2" d="M290.3,116.98c-1.75,1.31-2.63,2.96-2.63,4.95s.88,3.62,2.63,4.9c1.75,1.29,4.06,1.93,6.92,1.93h20.4c3.91,0,7.46.77,10.64,2.32,3.18,1.55,5.69,3.69,7.53,6.44,1.84,2.74,2.76,5.84,2.76,9.28s-.92,6.63-2.76,9.37c-1.84,2.75-4.35,4.9-7.53,6.48-3.18,1.58-6.73,2.37-10.64,2.37h-40.19v-11.3h40.1c2.92,0,5.25-.66,7.01-1.97,1.75-1.31,2.63-2.96,2.63-4.95s-.88-3.62-2.63-4.9c-1.75-1.28-4.06-1.93-6.92-1.93h-20.4c-3.91,0-7.46-.77-10.64-2.32-3.18-1.54-5.68-3.69-7.49-6.44-1.81-2.74-2.71-5.84-2.71-9.28s.9-6.62,2.71-9.37c1.81-2.74,4.3-4.9,7.49-6.48,3.18-1.58,6.73-2.37,10.64-2.37h40.19v11.3h-40.19c-2.86,0-5.17.66-6.92,1.97Z"/>
        <path class="cls-2" d="M396.65,123.9c3.18,1.78,5.68,4.22,7.49,7.31,1.81,3.09,2.71,6.6,2.71,10.51v23.29h-11.47v-23.29c0-2.74-.86-4.93-2.58-6.57-1.72-1.63-4.01-2.45-6.87-2.45h-28.72v32.31h-11.47v-65.67h11.47v21.89h28.72c3.97,0,7.54.89,10.73,2.67Z"/>
        <path class="cls-2" d="M462.1,123.68c2.98,1.64,5.31,3.88,7.01,6.74,1.69,2.86,2.54,6.1,2.54,9.72v24.69h-41.07c-3.04,0-5.78-.6-8.23-1.79-2.45-1.2-4.38-2.83-5.78-4.9-1.4-2.07-2.1-4.42-2.1-7.05s.7-4.89,2.1-6.96c1.4-2.07,3.33-3.69,5.78-4.86,2.45-1.17,5.2-1.75,8.23-1.75h30.3c-.53-1.81-1.56-3.24-3.11-4.29-1.55-1.05-3.46-1.58-5.74-1.58h-36.52v-10.42h36.52c3.74,0,7.09.82,10.07,2.45ZM430.49,146.27c-1.75,0-3.11.42-4.07,1.27-.96.85-1.44,2.03-1.44,3.55s.47,2.8,1.4,3.68c.93.88,2.31,1.31,4.12,1.31h30.74v-9.81h-30.74Z"/>
        <path class="cls-2" d="M500.19,165.01c-3.97,0-7.54-.89-10.73-2.67-3.18-1.78-5.68-4.22-7.49-7.31-1.81-3.09-2.71-6.6-2.71-10.51v-2.8c0-3.91.9-7.41,2.71-10.51,1.81-3.09,4.3-5.53,7.49-7.31,3.18-1.78,6.76-2.67,10.73-2.67h28.72v-21.89h11.47v65.67h-40.19ZM500.19,132.7c-2.86,0-5.15.82-6.87,2.45-1.72,1.63-2.58,3.82-2.58,6.57v2.8c0,2.74.86,4.93,2.58,6.57,1.72,1.63,4.01,2.45,6.87,2.45h28.72v-20.84h-28.72Z"/>
        <path class="cls-2" d="M557.07,162.56c-2.95-1.63-5.27-3.91-6.96-6.83-1.69-2.92-2.54-6.19-2.54-9.81v-5.6c0-3.62.85-6.89,2.54-9.81,1.69-2.92,4.01-5.19,6.96-6.83,2.95-1.63,6.29-2.45,10.03-2.45h20.84c5.9,0,10.39,1.56,13.49,4.68,3.09,3.12,4.7,7.22,4.82,12.3v8.41h-48.25c.17,2.45,1.08,4.39,2.71,5.82,1.63,1.43,3.77,2.15,6.39,2.15h40.89v10.42h-40.89c-3.74,0-7.08-.82-10.03-2.45ZM561.18,133.4c-1.55,1.17-2.55,2.77-3.02,4.82h37.65c-1.11-4.38-3.94-6.57-8.49-6.57h-20.23c-2.39,0-4.36.58-5.91,1.75Z"/>
        <path class="cls-2" d="M628.04,134.01c-1.63,1.58-2.45,3.68-2.45,6.3v24.69h-10.42v-24.69c0-3.62.85-6.89,2.54-9.81,1.69-2.92,4.01-5.19,6.96-6.83,2.95-1.63,6.29-2.45,10.03-2.45h38.44v10.42h-38.44c-2.8,0-5.02.79-6.66,2.37Z"/>
        <path class="cls-2" d="M694.19,117.46c-1.72,1.63-2.58,3.82-2.58,6.57v1.84h28.02v11.3h-28.02v27.85h-11.3v-40.98c0-3.85.89-7.33,2.67-10.42,1.78-3.09,4.25-5.52,7.4-7.27,3.15-1.75,6.71-2.63,10.68-2.63h37.92v11.3h-37.92c-2.86,0-5.15.82-6.87,2.45Z"/>
        <path class="cls-2" d="M792.4,123.68c2.98,1.64,5.31,3.91,7,6.83,1.69,2.92,2.54,6.19,2.54,9.81v5.6c0,3.62-.85,6.89-2.54,9.81-1.69,2.92-4.03,5.2-7,6.83-2.98,1.63-6.33,2.45-10.07,2.45h-21.19c-3.74,0-7.09-.82-10.07-2.45-2.98-1.63-5.31-3.91-7-6.83-1.69-2.92-2.54-6.19-2.54-9.81v-5.6c0-3.62.85-6.89,2.54-9.81,1.69-2.92,4.03-5.19,7-6.83,2.98-1.63,6.33-2.45,10.07-2.45h21.19c3.74,0,7.09.82,10.07,2.45ZM789.03,134.05c-1.66-1.61-3.9-2.41-6.7-2.41h-21.19c-2.8,0-5.04.8-6.7,2.41-1.66,1.61-2.5,3.69-2.5,6.26v5.6c0,2.57.83,4.66,2.5,6.26,1.66,1.61,3.9,2.41,6.7,2.41h21.19c2.8,0,5.04-.8,6.7-2.41,1.66-1.61,2.5-3.69,2.5-6.26v-5.6c0-2.57-.83-4.66-2.5-6.26Z"/>
        <path class="cls-2" d="M821.99,134.01c-1.63,1.58-2.45,3.68-2.45,6.3v24.69h-10.42v-24.69c0-3.62.85-6.89,2.54-9.81,1.69-2.92,4.01-5.19,6.96-6.83,2.95-1.63,6.29-2.45,10.03-2.45h38.44v10.42h-38.44c-2.8,0-5.02.79-6.66,2.37Z"/>
        <path class="cls-2" d="M932.76,176.92c-1.81,3.09-4.31,5.53-7.49,7.31-3.18,1.78-6.76,2.67-10.73,2.67h-40.19v-11.47h40.19c2.86,0,5.15-.82,6.87-2.45,1.72-1.63,2.58-3.82,2.58-6.57v-1.4h-28.81c-3.97,0-7.55-.89-10.73-2.67-3.18-1.78-5.68-4.22-7.49-7.31-1.81-3.09-2.71-6.6-2.71-10.51v-2.8c0-3.91.9-7.41,2.71-10.51,1.81-3.09,4.3-5.53,7.49-7.31,3.18-1.78,6.76-2.67,10.73-2.67h40.28v45.18c0,3.91-.91,7.41-2.71,10.51ZM895.2,132.7c-2.86,0-5.15.82-6.87,2.45-1.72,1.63-2.58,3.82-2.58,6.57v2.8c0,2.74.86,4.93,2.58,6.57,1.72,1.63,4.01,2.45,6.87,2.45h28.81v-20.84h-28.81Z"/>
        <path class="cls-2" d="M952.16,162.56c-2.95-1.63-5.27-3.91-6.96-6.83-1.69-2.92-2.54-6.19-2.54-9.81v-5.6c0-3.62.85-6.89,2.54-9.81,1.69-2.92,4.01-5.19,6.96-6.83,2.95-1.63,6.29-2.45,10.03-2.45h20.84c5.9,0,10.39,1.56,13.49,4.68,3.09,3.12,4.7,7.22,4.82,12.3v8.41h-48.25c.17,2.45,1.08,4.39,2.71,5.82,1.63,1.43,3.77,2.15,6.39,2.15h40.89v10.42h-40.89c-3.74,0-7.08-.82-10.03-2.45ZM956.27,133.4c-1.55,1.17-2.55,2.77-3.02,4.82h37.65c-1.11-4.38-3.94-6.57-8.49-6.57h-20.23c-2.39,0-4.36.58-5.91,1.75Z"/>
      </g>
      <path class="cls-1" d="M120.15,0L0,69.37v138.74l120.15,69.37,120.15-69.37V69.37L120.15,0ZM184.02,95.63l-56.73-32.76V19.13l94.62,54.63-37.89,21.87ZM64.23,113.8l48.69,28.11v57.8l-48.69-28.11v-57.8ZM125.92,144.19l50.99-29.44v56.85l-50.99,29.44v-56.85ZM121.39,131.79l-50.45-29.13,49.62-28.65,50.45,29.13-49.62,28.65ZM114.28,62.63l-56.34,32.53-38.31-22.12L114.28,18.4v44.23ZM51.23,106.29v65.62l-38.23,20.92v-108.62l38.23,22.07ZM58.01,183.02l54.91,31.7v43.57l-93.65-54.07,38.74-21.2ZM125.92,216.05l58.95-34.03,36.04,22.28-94.99,54.84v-43.08ZM189.91,169.86v-62.62l37.39-21.59v107.32l-37.39-23.11Z"/>
    </g>
  </g>
</svg>